# xmcd
#
# Track frame offsets:
#	150
#	19718
#	37151
#	51305
#	67388
#	84461
#	103315
#	116111
#	132681
#	151541
#	166867
#	181160
#	196709
#	214497
#	228276
#
# Disc length: 3291 seconds
#
# Revision: 1
# Processed by: cddbd v1.5.1PL0 Copyright (c) Steve Scherf et al.
# Submitted via: audiograbber 1.83.01
#
DISCID=d60cd90f
DTITLE=Various Artist - CDX Volume 374  July 2005
DYEAR=2005
DGENRE=Country
TTITLE0=Dierks Bentley - Come A Little Closer
TTITLE1=Susan Haynes - Crooked Little Heart
TTITLE2=Jeff Bates - Good People
TTITLE3=Cory Morrow - Beat Of Your Heart
TTITLE4=Billy Gilman - Hey, Little Suzie
TTITLE5=The Wilkinsons - Highway
TTITLE6=Kevin Sharp - I Think I'll Stay
TTITLE7=Jeannie Kendall - Out Of Loneliness
TTITLE8=Susie Luchsinger - There's Still Hope
TTITLE9=Shane Owens - Bottom of the Fifth
TTITLE10=G. Bush - Country Country
TTITLE11=Mollye Rees - Heart Shaped Tatoo
TTITLE12=Chris Campbell - Ordinary Guy
TTITLE13=Jason Savory - Wife For A Night
TTITLE14=Kacey Jones - Down at the Piggly Wiggly
EXTD=
EXTT0=
EXTT1=
EXTT2=
EXTT3=
EXTT4=
EXTT5=
EXTT6=
EXTT7=
EXTT8=
EXTT9=
EXTT10=
EXTT11=
EXTT12=
EXTT13=
EXTT14=
PLAYORDER=
